HIERARCHY
ROOT Hips
{
	OFFSET 0.00000 0.00000 0.00000
	CHANNELS 6 Xposition Yposition Zposition Zrotation Yrotation Xrotation 
	JOINT LHipJoint
	{
		OFFSET 0 0 0
		CHANNELS 3 Zrotation Yrotation Xrotation
		JOINT LeftUpLeg
		{
			OFFSET 1.30186 -1.90722 0.65024
			CHANNELS 3 Zrotation Yrotation Xrotation
			JOINT LeftLeg
			{
				OFFSET 2.56413 -7.04489 0.00000
				CHANNELS 3 Zrotation Yrotation Xrotation
				JOINT LeftFoot
				{
					OFFSET 2.79321 -7.67428 0.00000
					CHANNELS 3 Zrotation Yrotation Xrotation
					JOINT LeftToeBase
					{
						OFFSET 0.15723 -0.43198 2.08537
						CHANNELS 3 Zrotation Yrotation Xrotation
						End Site
						{
							OFFSET 0.00000 -0.00000 1.07411
						}
					}
				}
			}
		}
	}
	JOINT RHipJoint
	{
		OFFSET 0 0 0
		CHANNELS 3 Zrotation Yrotation Xrotation
		JOINT RightUpLeg
		{
			OFFSET -1.28627 -1.90723 0.65024
			CHANNELS 3 Zrotation Yrotation Xrotation
			JOINT RightLeg
			{
				OFFSET -2.56567 -7.04913 0.00000
				CHANNELS 3 Zrotation Yrotation Xrotation
				JOINT RightFoot
				{
					OFFSET -2.75597 -7.57198 0.00000
					CHANNELS 3 Zrotation Yrotation Xrotation
					JOINT RightToeBase
					{
						OFFSET -0.17500 -0.48081 2.22901
						CHANNELS 3 Zrotation Yrotation Xrotation
						End Site
						{
							OFFSET -0.00000 -0.00000 1.14762
						}
					}
				}
			}
		}
	}
	JOINT LowerBack
	{
		OFFSET 0 0 0
		CHANNELS 3 Zrotation Yrotation Xrotation
		JOINT Spine
		{
			OFFSET -0.04522 2.07467 -0.16566
			CHANNELS 3 Zrotation Yrotation Xrotation
			JOINT Spine1
			{
				OFFSET -0.01178 2.08825 -0.05393
				CHANNELS 3 Zrotation Yrotation Xrotation
				JOINT Neck
				{
					OFFSET 0 0 0
					CHANNELS 3 Zrotation Yrotation Xrotation
					JOINT Neck1
					{
						OFFSET -0.05182 1.80489 0.16014
						CHANNELS 3 Zrotation Yrotation Xrotation
						JOINT Head
						{
							OFFSET 0.14739 1.78840 -0.33342
							CHANNELS 3 Zrotation Yrotation Xrotation
							End Site
							{
								OFFSET 0.04364 1.83899 -0.13460
							}
						}
					}
				}
				JOINT LeftShoulder
				{
					OFFSET 0 0 0
					CHANNELS 3 Zrotation Yrotation Xrotation
					JOINT LeftArm
					{
						OFFSET 3.01264 1.29090 -0.06579
						CHANNELS 3 Zrotation Yrotation Xrotation
						JOINT LeftForeArm
						{
							OFFSET 5.55680 -0.00000 0.00000
							CHANNELS 3 Zrotation Yrotation Xrotation
							JOINT LeftHand
							{
								OFFSET 3.63979 -0.00000 -0.00000
								CHANNELS 3 Zrotation Yrotation Xrotation
								JOINT LeftFingerBase
								{
									OFFSET 0 0 0
									CHANNELS 3 Zrotation Yrotation Xrotation
									JOINT LeftHandIndex1
									{
										OFFSET 0.56942 -0.00000 -0.00000
										CHANNELS 3 Zrotation Yrotation Xrotation
										End Site
										{
											OFFSET 0.45908 -0.00000 -0.00000
										}
									}
								}
								JOINT LThumb
								{
									OFFSET 0 0 0
									CHANNELS 3 Zrotation Yrotation Xrotation
									End Site
									{
										OFFSET 0.46609 -0.00000 0.46609
									}
								}
							}
						}
					}
				}
				JOINT RightShoulder
				{
					OFFSET 0 0 0
					CHANNELS 3 Zrotation Yrotation Xrotation
					JOINT RightArm
					{
						OFFSET -3.15796 1.37283 -0.36748
						CHANNELS 3 Zrotation Yrotation Xrotation
						JOINT RightForeArm
						{
							OFFSET -5.34339 -0.00000 0.00000
							CHANNELS 3 Zrotation Yrotation Xrotation
							JOINT RightHand
							{
								OFFSET -3.65101 -0.00000 -0.00000
								CHANNELS 3 Zrotation Yrotation Xrotation
								JOINT RightFingerBase
								{
									OFFSET 0 0 0
									CHANNELS 3 Zrotation Yrotation Xrotation
									JOINT RightHandIndex1
									{
										OFFSET -0.69425 -0.00000 -0.00000
										CHANNELS 3 Zrotation Yrotation Xrotation
										End Site
										{
											OFFSET -0.55972 -0.00000 -0.00000
										}
									}
								}
								JOINT RThumb
								{
									OFFSET 0 0 0
									CHANNELS 3 Zrotation Yrotation Xrotation
									End Site
									{
										OFFSET -0.56827 -0.00000 0.56827
									}
								}
							}
						}
					}
				}
			}
		}
	}
}
MOTION
Frames: 7
Frame Time: .0083333
12.3168 18.6487 7.7695 -0.8091 2.0283 0.0202 0.0000 0.0000 0.0000 -14.9261 2.2438 -17.7382 10.4052 17.6315 60.8341 0.0004 -0.1099 0.4139 0.3231 -3.6539 -10.1048 0.0000 0.0000 0.0000 23.0023 12.6391 -8.5041 -1.6939 -8.1970 23.3141 -0.1814 -5.3368 -11.7512 -0.3980 -4.0504 11.2184 2.4019 -3.8729 3.5070 3.7281 -5.0625 1.5891 2.6672 -2.5341 -0.1961 -10.6817 -13.8364 -4.4557 9.2212 -20.8282 26.1454 2.4375 -9.7433 11.3472 0.0000 -0.0000 0.0000 -74.7685 7.0495 34.2099 95.6889 -59.8774 -64.9247 -0.0000 0.0000 -29.7834 0.6516 22.7849 0.2524 -7.1250 0.0000 -0.0000 -28.0529 50.5217 -4.0981 0.0000 -0.0000 0.0000 78.8181 -19.9053 51.6950 -113.7821 57.7512 -80.4404 0.0000 -0.0000 -14.7353 -14.7474 36.1449 -8.8253 7.1250 -0.0000 -0.0000 10.0486 6.5791 11.2999
12.3130 18.6371 7.8846 -0.8268 1.1154 0.2307 0.0000 0.0000 0.0000 -14.6949 2.5804 -19.1262 10.5086 17.6861 61.1753 0.0028 -0.0628 -0.9809 0.3708 -3.9114 -10.8274 0.0000 0.0000 0.0000 23.1766 13.0996 -8.1014 -1.6951 -8.1998 23.3225 -0.1934 -5.2856 -11.9164 -0.3040 -3.5452 9.8005 2.2860 -3.5318 3.4495 3.7500 -4.6113 1.5001 2.7374 -2.3095 -0.2576 -10.5328 -13.4899 -4.6674 9.1100 -20.3564 26.5669 2.4372 -9.5075 11.4614 -0.0000 -0.0000 0.0000 -74.1265 6.8235 33.6251 99.1823 -59.6790 -67.9435 -0.0000 0.0000 -30.0761 -1.1719 22.9139 -0.4563 -7.1250 0.0000 -0.0000 -29.7747 50.3494 -4.2562 -0.0000 -0.0000 0.0000 78.6927 -19.8404 52.3021 -115.6346 57.3652 -82.0038 0.0000 -0.0000 -14.7854 -13.4453 36.9551 -8.1789 7.1250 -0.0000 -0.0000 10.8400 7.1468 12.3141
12.2874 18.6224 7.9875 -1.0470 -1.0076 1.1459 0.0000 0.0000 0.0000 -14.2037 3.8933 -21.5548 10.5821 17.7244 61.4167 0.0090 0.0280 -1.7968 0.4020 -4.0707 -11.2757 0.0000 0.0000 0.0000 23.4697 14.3989 -8.2282 -1.6854 -8.1774 23.2542 -0.2443 -4.4357 -12.0398 -0.2506 -3.2208 8.8942 2.0274 -2.7534 2.8233 3.9027 -3.6033 1.2889 2.9755 -1.8076 -0.1299 -10.0565 -13.1999 -5.0047 8.6379 -19.8933 26.9961 2.2547 -9.2766 11.5230 -0.0000 0.0000 0.0000 -73.3256 6.4118 33.0019 102.4319 -59.4079 -70.7450 -0.0000 0.0000 -31.1248 -2.6207 22.6368 -1.0093 -7.1250 0.0000 -0.0000 -30.9048 49.8854 -4.0681 -0.0000 0.0000 0.0000 78.7340 -19.5646 52.8113 -117.2182 57.0068 -83.3348 0.0000 -0.0000 -14.8953 -12.1930 37.5591 -7.5037 7.1250 -0.0000 -0.0000 11.5701 7.5265 13.2421
12.3111 18.5985 8.1113 -0.8976 -0.1421 0.7499 0.0000 0.0000 0.0000 -14.2259 2.7192 -21.8097 10.5734 17.7199 61.3883 0.0223 0.0269 -2.8327 0.4179 -4.1494 -11.4974 0.0000 0.0000 0.0000 23.4643 13.4044 -7.2835 -1.6721 -8.1468 23.1609 -0.2814 -4.7493 -12.9063 -0.1383 -2.3969 6.6039 2.2547 -2.9648 3.0424 3.7622 -3.8714 1.3687 2.7217 -1.9396 -0.1853 -9.5680 -12.9412 -5.5404 8.0956 -19.4861 27.7256 2.0152 -9.0592 11.7439 0.0000 -0.0000 0.0000 -72.3317 5.6310 32.5465 105.0827 -59.1227 -73.0235 -0.0000 0.0000 -32.5824 -3.5310 22.3566 -1.3445 -7.1250 0.0000 -0.0000 -31.5442 49.5061 -3.8504 0.0000 -0.0000 0.0000 78.8910 -19.0642 53.1644 -118.3997 56.7215 -84.3241 0.0000 -0.0000 -15.0017 -11.3544 37.8962 -7.0315 7.1250 -0.0000 -0.0000 12.0464 7.7188 13.8452
12.3295 18.5732 8.2285 -1.0679 0.1504 0.5485 0.0000 0.0000 0.0000 -13.8804 1.9708 -22.3485 10.5161 17.6900 61.1997 0.0496 -0.2068 -4.1382 0.5409 -4.7120 -13.0890 0.0000 0.0000 0.0000 23.7974 13.0963 -6.4996 -1.6560 -8.1095 23.0472 -0.2651 -5.3500 -13.1659 -0.0234 -0.9880 2.7158 2.6961 -3.1049 3.4545 3.6983 -4.0168 1.2457 2.4456 -2.0107 -0.5721 -9.2139 -12.5859 -6.0657 7.6138 -18.9573 28.5551 1.8326 -8.7955 12.0207 -0.0000 -0.0000 0.0000 -71.4105 5.3081 31.7061 107.8208 -58.7653 -75.3693 -0.0000 0.0000 -33.8634 -3.8591 22.2402 -1.4625 -7.1250 0.0000 -0.0000 -31.7642 49.3569 -3.7562 -0.0000 -0.0000 0.0000 78.7970 -19.0508 53.9491 -120.0437 56.2983 -85.6952 0.0000 -0.0000 -15.1941 -11.2726 37.3416 -6.8937 7.1250 -0.0000 -0.0000 12.0291 7.1662 13.7241
12.3325 18.5584 8.3394 -1.1661 -0.9058 0.7128 0.0000 0.0000 0.0000 -13.5964 2.3172 -23.4033 10.3763 17.6161 60.7387 0.0849 -0.2234 -5.4282 0.6853 -5.2928 -14.7455 0.0000 0.0000 0.0000 23.9856 13.5422 -6.0836 -1.6443 -8.0823 22.9643 -0.2795 -5.1494 -13.2155 -0.0056 -0.4840 1.3300 2.7103 -2.8377 4.2459 3.7136 -3.5897 0.6379 2.5033 -1.8006 -1.6492 -9.1270 -12.2789 -6.0703 7.0371 -18.4662 29.3821 1.6831 -8.6130 12.2252 0.0000 -0.0000 0.0000 -70.6135 5.8529 30.7554 110.8485 -58.2922 -77.9518 -0.0000 0.0000 -35.0619 -4.4120 22.6389 -1.7011 -7.1250 0.0000 -0.0000 -32.4881 49.6138 -4.0833 0.0000 -0.0000 0.0000 78.2630 -20.1663 55.0162 -122.5963 55.5775 -87.8101 0.0000 -0.0000 -15.5804 -11.4357 37.0252 -6.9449 7.1250 -0.0000 -0.0000 11.9096 6.8839 13.5306
12.3592 18.5518 8.4680 -0.9544 -0.3033 0.1786 0.0000 0.0000 0.0000 -13.7244 1.2250 -23.2770 10.1403 17.4880 59.9562 0.1287 -0.0248 -6.7657 0.5476 -4.7406 -13.1702 0.0000 0.0000 0.0000 23.9060 12.9190 -5.1243 -1.6540 -8.1047 23.0325 -0.3096 -5.5774 -14.0401 -0.0158 -0.8108 2.2284 2.7720 -3.0546 5.2439 3.6034 -3.8065 0.2695 2.4446 -1.9104 -2.5941 -9.1984 -12.0941 -5.7419 6.6619 -18.1588 29.8625 1.6253 -8.5292 12.2878 -0.0000 0.0000 0.0000 -69.7193 6.0534 30.0256 113.3015 -57.8456 -80.0337 -0.0000 0.0000 -36.1283 -4.8003 23.1459 -1.8906 -7.1250 0.0000 -0.0000 -33.1403 49.9843 -4.5122 -0.0000 0.0000 0.0000 78.5512 -20.4017 55.1972 -122.5352 55.5956 -87.7597 0.0000 -0.0000 -15.6448 -11.1612 38.1687 -6.9517 7.1250 -0.0000 -0.0000 12.1771 7.9528 14.0446
